<?xml version="1.0" encoding="UTF-8" standalone="no"?>
<!-- Created with Inkscape (http://www.inkscape.org/) -->

<svg
   xmlns:dc="http://purl.org/dc/elements/1.1/"
   xmlns:cc="http://creativecommons.org/ns#"
   xmlns:rdf="http://www.w3.org/1999/02/22-rdf-syntax-ns#"
   xmlns:svg="http://www.w3.org/2000/svg"
   xmlns="http://www.w3.org/2000/svg"
   xmlns:sodipodi="http://sodipodi.sourceforge.net/DTD/sodipodi-0.dtd"
   xmlns:inkscape="http://www.inkscape.org/namespaces/inkscape"
   width="210mm"
   height="297mm"
   viewBox="0 0 744.09448819 1052.3622047"
   id="svg2"
   version="1.1"
   inkscape:version="0.91 r13725"
   sodipodi:docname="logoWPstore.svg"
   inkscape:export-filename="C:\Users\Kobs\Documents\projets\EasyBike\EasyBike\EasyBike.Droid\Resources\drawable-xhdpi\ic_wpstore.png"
   inkscape:export-xdpi="23.272728"
   inkscape:export-ydpi="23.272728">
  <defs
     id="defs4" />
  <sodipodi:namedview
     id="base"
     pagecolor="#ffffff"
     bordercolor="#666666"
     borderopacity="1.0"
     inkscape:pageopacity="0.0"
     inkscape:pageshadow="2"
     inkscape:zoom="0.60574246"
     inkscape:cx="311.43199"
     inkscape:cy="505.27908"
     inkscape:document-units="px"
     inkscape:current-layer="g4147"
     showgrid="false"
     inkscape:window-width="1304"
     inkscape:window-height="745"
     inkscape:window-x="54"
     inkscape:window-y="-8"
     inkscape:window-maximized="1" />
  <metadata
     id="metadata7">
    <rdf:RDF>
      <cc:Work
         rdf:about="">
        <dc:format>image/svg+xml</dc:format>
        <dc:type
           rdf:resource="http://purl.org/dc/dcmitype/StillImage" />
        <dc:title></dc:title>
      </cc:Work>
    </rdf:RDF>
  </metadata>
  <g
     inkscape:label="Calque 1"
     inkscape:groupmode="layer"
     id="layer1">
    <g
       id="g4147"
       transform="translate(63.811451,7.7400639)"
       style="fill:#3469c0;fill-opacity:1;stroke:none;stroke-opacity:1"
       inkscape:export-filename="C:\Users\Kobs\Documents\projets\EasyBike\EasyBike\EasyBike.Droid\Resources\drawable-xhdpi\ic_wpstore.png"
       inkscape:export-xdpi="23.27273"
       inkscape:export-ydpi="23.27273">
      <path
         style="fill:#3469c0;fill-opacity:1;stroke:none;stroke-opacity:1"
         d="m 127.44985,553.24382 0,-185 185.62499,0 185.625,0 0,185 0,184.99994 -185.625,0 -185.62499,0 z m 292.71368,147.26381 c 11.22622,-4.2549 20.82457,-8.33302 21.32967,-9.0625 0.5051,-0.72947 0.92698,-48.92931 0.9375,-107.11076 0.015,-83.15406 -0.31512,-106.04863 -1.54336,-107.01939 -2.34215,-1.85117 -41.17791,-15.34987 -44.0625,-15.31543 -3.54201,0.0423 -210.39903,39.70707 -211.8931,40.63046 -1.77579,1.0975 -1.68006,161.43928 0.097,162.5376 1.9576,1.20986 206.10587,42.82114 210.75975,42.95889 2.18002,0.0645 13.14877,-3.36397 24.375,-7.61887 z M 313.07484,631.32228 c -15.8125,-2.29816 -29.17187,-4.21222 -29.6875,-4.25347 -1.42606,-15.37517 -0.9375,-25.20806 -0.9375,-41.82499 l 61.25,0 0,24.25 c 0,14.4375 -0.42187,26.19531 -0.9375,26.12846 -0.51562,-0.0669 -13.875,-2.00184 -29.6875,-4.3 z m -57.5,-7.92763 -22.20817,-3.59793 c 0.38115,-11.92286 0.30103,-22.17366 -0.10816,-34.84473 l 44.69133,0.29183 c -0.69494,11.75692 -0.16189,30.13568 -0.062,41.31163 0,0 -9.938,-1.34244 -22.313,-3.1608 z m -22.5,-81.96638 19.375,-2.7443 c 10.65625,-1.50936 21.20313,-3.03425 23.4375,-3.38864 l 2.0625,-0.64434 0,44.84283 -44.68961,-0.29183 c 0.24438,-12.59192 0.17627,-25.17624 -0.18539,-37.77372 z m 49.375,-6.82116 4.0625,-0.66673 c 2.23438,-0.36669 14.46875,-2.08354 27.1875,-3.81521 12.71875,-1.73168 24.67188,-3.41182 26.5625,-3.73367 l 3.4375,-0.58518 0,26.84375 0,26.84375 -61.25,0 z m -34.75807,-74.17579 c 0.48647,-22.1169 0.88211,-26.03975 3.13387,-31.07308 3.14318,-7.02592 8.59448,-11.34458 18.52138,-14.67314 20.05637,-6.72505 31.74513,-6.27624 39.06475,1.49995 5.69427,6.04946 6.7364,10.84045 7.46316,34.31062 0.65391,21.1178 0.73182,21.61798 3.3098,21.25 2.58367,-0.36879 2.64011,-0.89792 2.64011,-24.75185 0,-22.59366 -0.19717,-24.7404 -2.69802,-29.375 -8.01787,-14.85879 -21.70135,-18.8555 -44.59372,-13.02506 -17.5414,4.4676 -28.1766,12.20513 -32.03449,23.30635 -1.06518,3.06509 -1.84268,14.02725 -2.21864,31.28121 l -0.57879,26.5625 3.71692,0 3.71692,0 z m 44.82547,7.97928 c 0.0371,-4.56048 0.53783,-12.78367 1.11279,-18.27376 0.98685,-9.42291 1.30522,-10.20658 5.68454,-13.99219 2.55152,-2.20562 5.84763,-4.18248 7.32471,-4.39303 2.91732,-0.41584 4.07531,-4.22433 2.17595,-7.15646 -0.98094,-1.51432 -1.98891,-1.45286 -6.89386,0.42036 -7.21463,2.75529 -12.75332,8.21616 -14.42007,14.21746 -0.70813,2.54971 -1.29066,12.29221 -1.29448,21.65 l -0.007,17.01416 3.125,-0.59738 c 2.95056,-0.56404 3.12876,-1.06022 3.1924,-8.88916 z m 69.78275,-5.04771 c 2.87459,-1.82068 0.0867,-33.52856 -3.45126,-39.25316 -4.15054,-6.71572 -9.88423,-8.82696 -21.7613,-8.01289 -10.93694,0.74964 -12.82136,1.75241 -11.69874,6.22535 0.73635,2.93382 1.01503,2.9964 10.81789,2.42892 8.59892,-0.49779 10.44569,-0.24075 12.70019,1.76761 4.69755,4.1847 6.04307,9.5696 6.04307,24.18495 0,13.47323 0.0646,13.78971 2.8125,13.77101 1.54688,-0.0105 3.58881,-0.51084 4.53765,-1.11179 z"
         id="path4149"
         inkscape:connector-curvature="0"
         sodipodi:nodetypes="cccccccccssssssscsssccscssccccsccscccccssscccccscssssssssscccsccsssssscsccccsssssccc" />
    </g>
  </g>
</svg>
