<?xml version="1.0" encoding="UTF-8" standalone="no"?>
<!-- Created with Inkscape (http://www.inkscape.org/) -->

<svg
   xmlns:dc="http://purl.org/dc/elements/1.1/"
   xmlns:cc="http://creativecommons.org/ns#"
   xmlns:rdf="http://www.w3.org/1999/02/22-rdf-syntax-ns#"
   xmlns:svg="http://www.w3.org/2000/svg"
   xmlns="http://www.w3.org/2000/svg"
   xmlns:sodipodi="http://sodipodi.sourceforge.net/DTD/sodipodi-0.dtd"
   xmlns:inkscape="http://www.inkscape.org/namespaces/inkscape"
   width="210mm"
   height="297mm"
   viewBox="0 0 744.09448819 1052.3622047"
   id="svg4146"
   version="1.1"
   inkscape:version="0.91 r13725"
   sodipodi:docname="logo.svg">
  <defs
     id="defs4148" />
  <sodipodi:namedview
     id="base"
     pagecolor="#ffffff"
     bordercolor="#666666"
     borderopacity="1.0"
     inkscape:pageopacity="0.0"
     inkscape:pageshadow="2"
     inkscape:zoom="1"
     inkscape:cx="64.84306"
     inkscape:cy="702.31739"
     inkscape:document-units="px"
     inkscape:current-layer="layer2"
     showgrid="false"
     inkscape:window-width="1858"
     inkscape:window-height="1057"
     inkscape:window-x="54"
     inkscape:window-y="-8"
     inkscape:window-maximized="1" />
  <metadata
     id="metadata4151">
    <rdf:RDF>
      <cc:Work
         rdf:about="">
        <dc:format>image/svg+xml</dc:format>
        <dc:type
           rdf:resource="http://purl.org/dc/dcmitype/StillImage" />
        <dc:title />
      </cc:Work>
    </rdf:RDF>
  </metadata>
  <g
     inkscape:label="Calque 1"
     inkscape:groupmode="layer"
     id="layer1"
     style="opacity:0.4" />
  <g
     inkscape:groupmode="layer"
     id="layer3"
     inkscape:label="Calque 3"
     style="display:inline">
    <rect
       style="fill:#0000ff;fill-opacity:0;fill-rule:evenodd;stroke:none;stroke-width:1.03887892px;stroke-linecap:butt;stroke-linejoin:miter;stroke-opacity:1"
       id="rect3340"
       width="368.802"
       height="368.802"
       x="169.59344"
       y="234.3382"
       inkscape:export-filename="C:\Users\marcm_000\Documents\GitHubVisualStudio\EasyBike\EasyBike\EasyBike.Droid\Resources\drawable\ic_launcher_web.png"
       inkscape:export-xdpi="124.94509"
       inkscape:export-ydpi="124.94509" />
    <rect
       style="opacity:1;fill:#3469c0;fill-opacity:1;stroke:none"
       id="rect4770"
       width="644"
       height="314.45312"
       x="25"
       y="241.90906"
       inkscape:export-filename="C:\Users\marcm_000\Documents\GitHubVisualStudio\EasyBike\EasyBike\EasyBike.Droid\Assets\featureGraphic.png"
       inkscape:export-xdpi="143.10559"
       inkscape:export-ydpi="143.10559" />
  </g>
  <g
     inkscape:groupmode="layer"
     id="layer2"
     inkscape:label="Calque 2"
     style="display:inline">
    <path
       style="fill:#3469c0;fill-opacity:1;stroke:none;stroke-width:57.05280685;stroke-opacity:1"
       d="m 355.61356,234.33819 c 39.09449,0 78.19049,14.91434 108.02022,44.74316 53.12932,53.1328 53.25794,141.35177 11.74668,200.91555 L 463.63378,495.11966 355.61356,603.13988 244.84126,492.29677 c -56.88969,-59.84771 -55.97149,-154.48988 2.75292,-213.21542 29.82897,-29.82882 68.92421,-44.74316 108.01938,-44.74316 z"
       id="path4158"
       inkscape:connector-curvature="0"
       sodipodi:nodetypes="sssss"
       inkscape:export-filename="C:\Users\marcm_000\Documents\GitHubVisualStudio\EasyBike\EasyBike\EasyBike.Droid\Resources\drawable\ic_launcher_web.png"
       inkscape:export-xdpi="124.94509"
       inkscape:export-ydpi="124.94509" />
    <g
       id="g4303"
       style="fill:#ffffff;fill-opacity:1;stroke:#000000;stroke-opacity:1"
       transform="matrix(0.32692549,0,0,0.32692549,259.63909,92.342203)"
       inkscape:export-filename="C:\Users\marcm_000\Documents\GitHubVisualStudio\EasyBike\EasyBike\EasyBike.Droid\Assets\featureGraphic.png"
       inkscape:export-xdpi="143.10559"
       inkscape:export-ydpi="143.10559">
      <path
         style="fill:#ffffff;fill-opacity:1;stroke:none;stroke-opacity:1"
         d="m 442.17376,1193.6961 c 66.45567,-12.8847 120.80897,-62.656 143.34027,-131.2568 7.8449,-23.8854 11.1209,-43.0872 11.9959,-70.31246 1.315,-40.9162 -7.0867,-84.2243 -23.5372,-121.32703 -23.011,-51.89947 -66.7906,-95.60409 -113.04897,-112.85535 -46.0101,-17.15865 -98.07586,-11.708 -141.28866,14.7912 l -3.945,2.41916 -1.3617,-2.63322 c -2.0399,-3.94475 -49.46511,-106.26392 -60.67684,-130.90937 -7.46372,-16.40663 -10.74502,-22.55709 -13.95141,-26.15038 -8.06363,-9.03671 -13.86623,-9.49543 -28.71574,-2.2701 -5.61928,2.73416 -14.15972,6.6365 -18.97879,8.67187 -16.4135,6.93236 -22.73534,15.3271 -23.42548,31.10656 -0.45337,10.36584 0.96095,15.11448 5.93859,19.93899 2.77112,2.68589 4.06809,3.2172 8.66028,3.54786 4.74879,0.34194 6.73642,-0.14572 16.45861,-4.03811 6.08165,-2.43487 11.23327,-4.2513 11.44803,-4.03654 1.04728,1.04728 63.27565,142.05194 63.27565,143.37772 0,0.84248 -3.6308,6.96495 -8.06856,13.60548 -27.44745,41.07203 -41.61892,88.64166 -41.61892,139.70306 0,53.74906 13.29563,99.54346 41.12761,141.65656 33.47487,50.6514 80.63457,82.0521 133.24733,88.7209 7.1026,0.9003 35.3724,-0.2469 43.125,-1.75 z m -49.7757,-57.6986 c -37.41876,-4.1385 -72.28806,-27.1259 -96.58366,-63.6723 -27.2596,-41.0048 -37.0598,-93.46366 -26.9797,-144.41716 5.797,-29.3027 21.7551,-62.06503 38.982,-80.03053 10.9052,-11.37276 20.8119,-19.76439 27.0134,-22.88199 2.0625,-1.03687 7.0179,-3.64283 11.0121,-5.79102 15.0804,-8.11066 29.9395,-11.6613 48.51906,-11.59382 30.7042,0.11153 58.8847,11.99383 82.7534,34.89289 15.6042,14.97034 26.24877,29.94424 36.38667,51.18577 12.2064,25.5755 18.1493,49.5506 19.2878,77.8125 1.5229,37.80456 -8.7804,76.12266 -28.4782,105.91106 -7.5584,11.4304 -27.31857,31.5688 -37.76217,38.4851 -23.5602,15.6026 -50.003,22.7702 -74.1507,20.0995 z M 71.125603,1092.7037 c 21.49884,-10.2496 39.360797,-36.6508 48.087187,-71.0761 4.7443,-18.7162 6.22184,-30.22626 6.97616,-54.34456 0.60832,-19.4504 0.46394,-24.9792 -0.94261,-36.0937 -6.68907,-52.85703 -23.99361,-89.26599 -50.264357,-105.75687 -10.21003,-6.40912 -25.55745,-8.21057 -37.02827,-4.34634 -25.01347,8.42643 -45.46744,39.96178 -54.08353,83.38441 -3.70481,18.6712 -4.33151,26.1472 -4.28308,51.0938 0.0394,20.284 0.39164,26.5778 2.09879,37.5 7.16139,45.81776 23.49997,78.66186 47.17988,94.84166 9.63859,6.5857 17.1685,8.9171 27.25983,8.4399 6.92158,-0.3272 9.2145,-0.8839 15,-3.6422 z m -28.82726,-41.3866 c -12.52438,-5.8321 -25.66641,-28.9466 -31.78789,-55.90906 -10.28177999,-45.2869 -1.09877,-101.407 20.34418,-124.32963 11.91251,-12.7345 24.09787,-13.3687 35.61322,-1.8533 10.52855,10.5285 19.20434,29.60763 23.7007,52.12043 1.91298,9.5782 3.22426,46.6391 2.13051,60.2152 -2.12591,26.38796 -12.41997,52.96596 -25.11305,64.83896 -2.60667,2.4381 -6.19347,5.0406 -7.97068,5.7832 -4.81376,2.0113 -11.47008,1.6707 -16.91699,-0.8658 z M 120.91489,852.03331 c 3.87536,-1.4734 9.06413,-6.6784 11.66065,-11.69713 2.11351,-4.08514 4.90328,-7.88679 3.29729,-16.84652 l -0.73028,-4.80037 -20.39062,-51.14603 c -11.21487,-28.1303 -20.390647,-51.59839 -20.390647,-52.15131 0,-0.55292 2.46953,-1.92884 5.48783,-3.05762 7.120197,-2.66277 11.270737,-6.1661 14.660237,-12.37421 2.32772,-4.26341 2.79879,-6.31325 3.12259,-13.58804 0.46337,-10.41016 -0.54465,-13.82238 -5.51795,-18.67869 -3.42223,-3.34172 -4.24276,-3.69114 -8.65726,-3.68678 -4.220357,0.004 -8.219947,1.5183 -29.717217,11.25 -28.13447,12.73634 -31.52679,15.1182 -34.1599,23.98483 -2.04197,6.87605 -1.89047,18.11524 0.30948,22.95904 2.83752,6.2476 5.98766,8.09983 13.15467,7.73471 l 6.0539,-0.3084 6.3461,15.9375 c 3.49035,8.76562 13.54317,34.69345 22.33957,57.61739 9.09906,23.71266 16.894037,42.65972 18.082577,43.95283 4.77229,5.1922 9.89294,6.8591 15.04895,4.8988 z"
         id="path4305"
         inkscape:connector-curvature="0"
         sodipodi:nodetypes="sssssscssssssssssssssssssssssssssssssssssssssscsssssssccscsccsssssscsssscssscc" />
    </g>
    <rect
       style="fill:#bdb8ff;fill-opacity:0;stroke:none"
       id="rect4688"
       width="538"
       height="434"
       x="126"
       y="202.3622" />
  </g>
</svg>
